<svg width="102" height="57" viewBox="0 0 102 57" fill="none" xmlns="http://www.w3.org/2000/svg">
<path fill-rule="evenodd" clip-rule="evenodd" d="M30 20C31.333 14.667 34.667 12 40 12C48 12 49 18 53 19C55.667 19.667 58 18.667 60 16C58.667 21.333 55.333 24 50 24C42 24 41 18 37 17C34.333 16.333 32 17.333 30 20Z" fill="#41B883"/>
<path fill-rule="evenodd" clip-rule="evenodd" d="M40 8C41.333 2.667 44.667 0 50 0C58 0 59 6 63 7C65.667 7.667 68 6.667 70 4C68.667 9.333 65.333 12 60 12C52 12 51 6 47 5C44.333 4.333 42 5.333 40 8Z" fill="#3B8070"/>
<path d="M8.76 44.64C9.05867 44.64 9.29334 44.736 9.464 44.928C9.64534 45.1093 9.736 45.3547 9.736 45.664V55.056C9.736 55.3653 9.64534 55.616 9.464 55.808C9.28267 56 9.048 56.096 8.76 56.096C8.41867 56.096 8.15734 55.9733 7.976 55.728L2.136 48.128V55.056C2.136 55.3653 2.05067 55.616 1.88 55.808C1.70934 56 1.47467 56.096 1.176 56.096C0.877337 56.096 0.64267 56 0.472003 55.808C0.301337 55.616 0.216003 55.3653 0.216003 55.056V45.664C0.216003 45.3547 0.30667 45.1093 0.488003 44.928C0.669337 44.736 0.909337 44.64 1.208 44.64C1.53867 44.64 1.79467 44.7627 1.976 45.008L7.8 52.576V45.664C7.8 45.3547 7.88534 45.1093 8.056 44.928C8.23734 44.736 8.472 44.64 8.76 44.64Z" fill="#24292E"/>
<path d="M18.1691 48.016C18.4785 48.016 18.7238 48.1013 18.9051 48.272C19.0865 48.4427 19.1771 48.672 19.1771 48.96V55.168C19.1771 55.4453 19.0811 55.6693 18.8891 55.84C18.7078 56.0107 18.4678 56.096 18.1691 56.096C17.8811 56.096 17.6518 56.016 17.4811 55.856C17.3105 55.696 17.2251 55.4773 17.2251 55.2V54.8C16.9798 55.2267 16.6491 55.5573 16.2331 55.792C15.8171 56.016 15.3478 56.128 14.8251 56.128C12.9051 56.128 11.9451 55.0507 11.9451 52.896V48.96C11.9451 48.672 12.0358 48.4427 12.2171 48.272C12.3985 48.1013 12.6385 48.016 12.9371 48.016C13.2465 48.016 13.4918 48.1013 13.6731 48.272C13.8545 48.4427 13.9451 48.672 13.9451 48.96V52.912C13.9451 53.4667 14.0571 53.8773 14.2811 54.144C14.5051 54.4107 14.8571 54.544 15.3371 54.544C15.8918 54.544 16.3345 54.3627 16.6651 54C17.0065 53.6267 17.1771 53.136 17.1771 52.528V48.96C17.1771 48.672 17.2678 48.4427 17.4491 48.272C17.6305 48.1013 17.8705 48.016 18.1691 48.016Z" fill="#24292E"/>
<path d="M28.0428 54.528C28.2348 54.72 28.3308 54.9387 28.3308 55.184C28.3308 55.4187 28.2401 55.632 28.0588 55.824C27.8774 56.0053 27.6641 56.096 27.4188 56.096C27.1521 56.096 26.9228 55.984 26.7308 55.76L24.4748 53.264L22.2188 55.76C22.0161 55.9733 21.7868 56.08 21.5308 56.08C21.2961 56.08 21.0881 55.9893 20.9068 55.808C20.7254 55.6267 20.6348 55.4187 20.6348 55.184C20.6348 54.9387 20.7308 54.72 20.9228 54.528L23.2588 51.984L21.0508 49.584C20.8588 49.392 20.7628 49.1733 20.7628 48.928C20.7628 48.6827 20.8534 48.4747 21.0348 48.304C21.2161 48.1227 21.4241 48.032 21.6588 48.032C21.9148 48.032 22.1441 48.1387 22.3468 48.352L24.4748 50.688L26.6028 48.352C26.8054 48.1387 27.0348 48.032 27.2908 48.032C27.5361 48.032 27.7441 48.1227 27.9148 48.304C28.0961 48.4747 28.1868 48.6827 28.1868 48.928C28.1868 49.1733 28.0908 49.392 27.8988 49.584L25.6908 51.984L28.0428 54.528Z" fill="#24292E"/>
<path d="M33.8384 54.608C34.3717 54.64 34.6384 54.88 34.6384 55.328C34.6384 55.584 34.5317 55.7813 34.3184 55.92C34.1157 56.048 33.8224 56.1013 33.4384 56.08L33.0064 56.048C31.2144 55.92 30.3184 54.96 30.3184 53.168V49.68H29.5184C29.2304 49.68 29.0064 49.616 28.8464 49.488C28.697 49.36 28.6224 49.1733 28.6224 48.928C28.6224 48.6827 28.697 48.496 28.8464 48.368C29.0064 48.24 29.2304 48.176 29.5184 48.176H30.3184V46.704C30.3184 46.416 30.409 46.1867 30.5904 46.016C30.7717 45.8453 31.017 45.76 31.3264 45.76C31.625 45.76 31.865 45.8453 32.0464 46.016C32.2277 46.1867 32.3184 46.416 32.3184 46.704V48.176H33.6784C33.9664 48.176 34.185 48.24 34.3344 48.368C34.4944 48.496 34.5744 48.6827 34.5744 48.928C34.5744 49.1733 34.4944 49.36 34.3344 49.488C34.185 49.616 33.9664 49.68 33.6784 49.68H32.3184V53.312C32.3184 54.1013 32.681 54.5227 33.4064 54.576L33.8384 54.608Z" fill="#24292E"/>
<path d="M36.2771 52.512C35.9678 52.512 35.7331 52.4427 35.5731 52.304C35.4238 52.1653 35.3491 51.9733 35.3491 51.728C35.3491 51.4827 35.4238 51.2907 35.5731 51.152C35.7331 51.0027 35.9678 50.928 36.2771 50.928H39.5731C39.8825 50.928 40.1118 51.0027 40.2611 51.152C40.4211 51.2907 40.5011 51.4827 40.5011 51.728C40.5011 51.9733 40.4211 52.1653 40.2611 52.304C40.1118 52.4427 39.8825 52.512 39.5731 52.512H36.2771Z" fill="#24292E"/>
<path d="M45.537 56.08C45.217 56.08 44.961 55.9893 44.769 55.808C44.5877 55.616 44.497 55.3653 44.497 55.056V46.416H41.585C40.945 46.416 40.625 46.1333 40.625 45.568C40.625 45.0027 40.945 44.72 41.585 44.72H49.473C50.113 44.72 50.433 45.0027 50.433 45.568C50.433 46.1333 50.113 46.416 49.473 46.416H46.561V55.056C46.561 55.3653 46.465 55.616 46.273 55.808C46.0917 55.9893 45.8463 56.08 45.537 56.08Z" fill="#24292E"/>
<path d="M53.6195 47.984C54.7075 47.984 55.5128 48.256 56.0355 48.8C56.5688 49.3333 56.8355 50.1493 56.8355 51.248V55.152C56.8355 55.44 56.7502 55.6693 56.5795 55.84C56.4088 56 56.1742 56.08 55.8755 56.08C55.5982 56.08 55.3688 55.9947 55.1875 55.824C55.0168 55.6533 54.9315 55.4293 54.9315 55.152V54.8C54.7502 55.216 54.4622 55.5413 54.0675 55.776C53.6835 56.0107 53.2355 56.128 52.7235 56.128C52.2008 56.128 51.7262 56.0213 51.2995 55.808C50.8728 55.5947 50.5368 55.3013 50.2915 54.928C50.0462 54.5547 49.9235 54.1387 49.9235 53.68C49.9235 53.104 50.0675 52.6507 50.3555 52.32C50.6542 51.9893 51.1342 51.7493 51.7955 51.6C52.4568 51.4507 53.3688 51.376 54.5315 51.376H54.9315V51.008C54.9315 50.4853 54.8195 50.1067 54.5955 49.872C54.3715 49.6267 54.0088 49.504 53.5075 49.504C53.1982 49.504 52.8835 49.552 52.5635 49.648C52.2435 49.7333 51.8648 49.8613 51.4275 50.032C51.1502 50.1707 50.9475 50.24 50.8195 50.24C50.6275 50.24 50.4675 50.1707 50.3395 50.032C50.2222 49.8933 50.1635 49.712 50.1635 49.488C50.1635 49.3067 50.2062 49.152 50.2915 49.024C50.3875 48.8853 50.5422 48.7573 50.7555 48.64C51.1288 48.4373 51.5715 48.2773 52.0835 48.16C52.6062 48.0427 53.1182 47.984 53.6195 47.984ZM53.1235 54.688C53.6568 54.688 54.0888 54.512 54.4195 54.16C54.7608 53.7973 54.9315 53.3333 54.9315 52.768V52.432H54.6435C53.9288 52.432 53.3742 52.464 52.9795 52.528C52.5848 52.592 52.3022 52.704 52.1315 52.864C51.9608 53.024 51.8755 53.2427 51.8755 53.52C51.8755 53.8613 51.9928 54.144 52.2275 54.368C52.4728 54.5813 52.7715 54.688 53.1235 54.688Z" fill="#24292E"/>
<path d="M59.8601 56.096C59.5721 56.096 59.3321 56.016 59.1401 55.856C58.9588 55.6853 58.8681 55.4453 58.8681 55.136V48.96C58.8681 48.6507 58.9588 48.416 59.1401 48.256C59.3321 48.096 59.5721 48.016 59.8601 48.016C60.1481 48.016 60.3881 48.096 60.5801 48.256C60.7721 48.416 60.8681 48.6507 60.8681 48.96V55.136C60.8681 55.4453 60.7721 55.6853 60.5801 55.856C60.3881 56.016 60.1481 56.096 59.8601 56.096ZM59.8601 46.592C59.4975 46.592 59.2095 46.496 58.9961 46.304C58.7828 46.1013 58.6761 45.84 58.6761 45.52C58.6761 45.2 58.7828 44.944 58.9961 44.752C59.2095 44.56 59.4975 44.464 59.8601 44.464C60.2121 44.464 60.4948 44.56 60.7081 44.752C60.9321 44.944 61.0441 45.2 61.0441 45.52C61.0441 45.84 60.9375 46.1013 60.7241 46.304C60.5108 46.496 60.2228 46.592 59.8601 46.592Z" fill="#24292E"/>
<path d="M63.9226 56.096C63.6346 56.096 63.3946 56.016 63.2026 55.856C63.0213 55.6853 62.9306 55.4453 62.9306 55.136V45.584C62.9306 45.2747 63.0213 45.04 63.2026 44.88C63.3946 44.72 63.6346 44.64 63.9226 44.64C64.2106 44.64 64.4506 44.72 64.6426 44.88C64.8346 45.04 64.9306 45.2747 64.9306 45.584V55.136C64.9306 55.4453 64.8346 55.6853 64.6426 55.856C64.4506 56.016 64.2106 56.096 63.9226 56.096Z" fill="#24292E"/>
<path d="M77.5691 48.608C77.6438 48.416 77.7505 48.272 77.8891 48.176C78.0385 48.08 78.1985 48.032 78.3691 48.032C78.6145 48.032 78.8331 48.1173 79.0251 48.288C79.2278 48.448 79.3291 48.6507 79.3291 48.896C79.3291 49.0347 79.3025 49.1573 79.2491 49.264L76.6091 55.456C76.5238 55.6587 76.3905 55.8133 76.2091 55.92C76.0385 56.0267 75.8465 56.08 75.6331 56.08C75.4305 56.08 75.2385 56.0267 75.0571 55.92C74.8865 55.8133 74.7585 55.6587 74.6731 55.456L72.7691 50.88L70.9291 55.456C70.8438 55.6587 70.7105 55.8133 70.5291 55.92C70.3585 56.0267 70.1665 56.08 69.9531 56.08C69.7505 56.08 69.5585 56.0267 69.3771 55.92C69.1958 55.8133 69.0625 55.6587 68.9771 55.456L66.3531 49.264C66.2998 49.1253 66.2731 49.008 66.2731 48.912C66.2731 48.6667 66.3798 48.4587 66.5931 48.288C66.8065 48.1067 67.0411 48.016 67.2971 48.016C67.4785 48.016 67.6438 48.064 67.7931 48.16C67.9425 48.256 68.0545 48.4 68.1291 48.592L70.0171 53.472L71.9531 48.64C72.0385 48.4373 72.1611 48.288 72.3211 48.192C72.4811 48.0853 72.6571 48.032 72.8491 48.032C73.0411 48.032 73.2171 48.0853 73.3771 48.192C73.5371 48.288 73.6598 48.4373 73.7451 48.64L75.6971 53.488L77.5691 48.608Z" fill="#24292E"/>
<path d="M81.6882 56.096C81.4002 56.096 81.1602 56.016 80.9682 55.856C80.7869 55.6853 80.6963 55.4453 80.6963 55.136V48.96C80.6963 48.6507 80.7869 48.416 80.9682 48.256C81.1602 48.096 81.4002 48.016 81.6882 48.016C81.9762 48.016 82.2162 48.096 82.4082 48.256C82.6002 48.416 82.6963 48.6507 82.6963 48.96V55.136C82.6963 55.4453 82.6002 55.6853 82.4082 55.856C82.2162 56.016 81.9762 56.096 81.6882 56.096ZM81.6882 46.592C81.3256 46.592 81.0376 46.496 80.8242 46.304C80.6109 46.1013 80.5042 45.84 80.5042 45.52C80.5042 45.2 80.6109 44.944 80.8242 44.752C81.0376 44.56 81.3256 44.464 81.6882 44.464C82.0402 44.464 82.3229 44.56 82.5362 44.752C82.7602 44.944 82.8723 45.2 82.8723 45.52C82.8723 45.84 82.7656 46.1013 82.5523 46.304C82.3389 46.496 82.0509 46.592 81.6882 46.592Z" fill="#24292E"/>
<path d="M89.3027 47.984C90.2414 47.984 90.9401 48.2507 91.3988 48.784C91.8574 49.3173 92.0867 50.1227 92.0867 51.2V55.136C92.0867 55.4347 91.9961 55.6693 91.8148 55.84C91.6441 56.0107 91.4041 56.096 91.0947 56.096C90.7854 56.096 90.5401 56.0107 90.3587 55.84C90.1774 55.6693 90.0868 55.4347 90.0868 55.136V51.312C90.0868 50.704 89.9694 50.2613 89.7347 49.984C89.5107 49.7067 89.1534 49.568 88.6628 49.568C88.0868 49.568 87.6228 49.7493 87.2708 50.112C86.9294 50.4747 86.7588 50.96 86.7588 51.568V55.136C86.7588 55.4347 86.6681 55.6693 86.4867 55.84C86.3054 56.0107 86.0601 56.096 85.7507 56.096C85.4414 56.096 85.1961 56.0107 85.0147 55.84C84.8441 55.6693 84.7588 55.4347 84.7588 55.136V48.944C84.7588 48.6667 84.8494 48.4427 85.0307 48.272C85.2121 48.1013 85.4574 48.016 85.7667 48.016C86.0441 48.016 86.2681 48.1013 86.4388 48.272C86.6201 48.432 86.7107 48.6453 86.7107 48.912V49.344C86.9774 48.9067 87.3348 48.5707 87.7828 48.336C88.2308 48.1013 88.7374 47.984 89.3027 47.984Z" fill="#24292E"/>
<path d="M100.646 44.64C100.945 44.64 101.19 44.7253 101.382 44.896C101.574 45.0667 101.67 45.2907 101.67 45.568V55.136C101.67 55.424 101.579 55.6533 101.398 55.824C101.217 55.9947 100.977 56.08 100.678 56.08C100.379 56.08 100.139 55.9947 99.9581 55.824C99.7768 55.6533 99.6861 55.424 99.6861 55.136V54.736C99.4515 55.1733 99.1101 55.5147 98.6621 55.76C98.2248 56.0053 97.7235 56.128 97.1581 56.128C96.4861 56.128 95.8835 55.9573 95.3501 55.616C94.8275 55.2747 94.4168 54.7947 94.1181 54.176C93.8301 53.5467 93.6861 52.8267 93.6861 52.016C93.6861 51.2053 93.8301 50.496 94.1181 49.888C94.4168 49.28 94.8275 48.8107 95.3501 48.48C95.8728 48.1493 96.4755 47.984 97.1581 47.984C97.7235 47.984 98.2248 48.1013 98.6621 48.336C99.0995 48.5707 99.4355 48.9013 99.6701 49.328V45.536C99.6701 45.2693 99.7555 45.056 99.9261 44.896C100.107 44.7253 100.347 44.64 100.646 44.64ZM97.6861 54.576C98.3261 54.576 98.8168 54.3573 99.1581 53.92C99.5101 53.4827 99.6861 52.8587 99.6861 52.048C99.6861 51.2373 99.5101 50.6187 99.1581 50.192C98.8168 49.7547 98.3315 49.536 97.7021 49.536C97.0621 49.536 96.5661 49.7493 96.2141 50.176C95.8621 50.6027 95.6861 51.216 95.6861 52.016C95.6861 52.8267 95.8621 53.456 96.2141 53.904C96.5661 54.352 97.0568 54.576 97.6861 54.576Z" fill="#24292E"/>
</svg>
